# xmcd
#
# Track frame offsets: 
#        150
#        34895
#        44290
#        58632
#        69745
#        78490
#        95335
#        125842
#        142112
#        161060
#        176465
#        191117
#        203682
#        233955
#        300520
#
# Disc length: 4369 seconds
#
# Revision: 3
# Processed by: cddbd v1.5.2PL0 Copyright (c) Steve Scherf et al.
# Submitted via: ExactAudioCopyFreeDBPlugin 1.0
#
DISCID=d8110f0f
DTITLE=Selena - Live: The Last Concert
DYEAR=2002
DGENRE=Latin
TTITLE0=Disco Medley (I Will Survive, Funky Town, Last Dance, The Hust
TTITLE0=le and On The Radio)(Live from The Astrodome, Houston Texas (02.
TTITLE0=26.95))
TTITLE1=Amor Prohibido (Live from The Astrodome, Houston Texas (02.26.
TTITLE1=95))
TTITLE2=Baila Esta Cumbia (Live from The Astrodome, Houston Texas (02.
TTITLE2=26.95))
TTITLE3=Tus Desprecios (Live from The Astrodome, Houston Texas (02.26.
TTITLE3=95))
TTITLE4=Cobarde (Live from The Astrodome, Houston Texas (02.26.95))
TTITLE5=Techno Cumbia (Live from The Astrodome, Houston Texas (02.26.9
TTITLE5=5))
TTITLE6=La Carcacha (Live from The Astrodome, Houston Texas (02.26.95)
TTITLE6=)
TTITLE7=No Me Queda Mas (Live from The Astrodome, Houston Texas (02.26
TTITLE7=95))
TTITLE8=Bidi Bidi Bom Bom (Live from The Astrodome, Houston Texas (02.
TTITLE8=26.95))
TTITLE9=Si Una Vez (Live from The Astrodome, Houston Texas (02.26.95))
TTITLE10=El Chico Del Apartmento 512 (Live from The Astrodome, Houston
TTITLE10=Texas (02.26.95))
TTITLE11=Ya Ves (Live from The Astrodome, Houston Texas (02.26.95))
TTITLE12=Como La Flor (Live from The Astrodome, Houston Texas (02.26.9
TTITLE12=5))
TTITLE13=Spoken Liner Notes By The Band And Family
TTITLE14=Data
EXTD=
EXTT0=
EXTT1=
EXTT2=
EXTT3=
EXTT4=
EXTT5=
EXTT6=
EXTT7=
EXTT8=
EXTT9=
EXTT10=
EXTT11=
EXTT12=
EXTT13=
EXTT14=
PLAYORDER=
